<svg xmlns="http://www.w3.org/2000/svg" width="1200" height="900" viewBox="0 0 1200 900" role="img" aria-labelledby="title desc">
  <title id="title">羅漢果潤喉茶 placeholder</title>
  <desc id="desc">溫潤茶杯線條與羅漢果圖案</desc>
  <rect width="1200" height="900" fill="#f8f3ea"/>
  <rect x="225" y="155" width="750" height="565" rx="70" fill="#fffaf2" stroke="#d9c7a8" stroke-width="8"/>
  <path d="M430 425h305v165c0 60-49 109-109 109h-87c-60 0-109-49-109-109V425z" fill="none" stroke="#234336" stroke-width="18" stroke-linejoin="round"/>
  <path d="M735 470h55c42 0 42 78 0 78h-55" fill="none" stroke="#234336" stroke-width="16" stroke-linecap="round"/>
  <circle cx="585" cy="515" r="48" fill="none" stroke="#7a5a2f" stroke-width="12"/>
  <path d="M552 515h66M585 482v66" stroke="#c8a45d" stroke-width="10" stroke-linecap="round"/>
  <path d="M510 360c-24-32 24-50 0-82M610 360c-24-32 24-50 0-82M710 360c-24-32 24-50 0-82" stroke="#7a5a2f" stroke-width="12" stroke-linecap="round"/>
  <text x="600" y="790" text-anchor="middle" font-family="'Noto Serif TC', 'Microsoft JhengHei', serif" font-size="58" font-weight="700" fill="#234336">羅漢果潤喉茶</text>
</svg>
